PathFileType	4	(X/Y/Z)	D:\Long Term Storage\D'Arcy Smith\Coord12.trc
DataRate	CameraRate	NumFrames	NumMarkers	Units	OrigDataRate	OrigDataStartFrame	OrigNumFrames
120.00	120.00	      60	4	mm	120.00	3610	      4812
Frame#	Time	M1			M2			M3			M4			
		X1	Y1	Z1	X2	Y2	Z2	X3	Y3	Z3	X4	Y4	Z4	

3610	30.075	1021.09723	394.01016	195.59850	1638.49329	390.90369	227.96721							
3611	30.083	1021.44421	398.34369	190.43289	1638.35486	395.60721	222.14133							
3612	30.092	1022.22455	402.83282	185.65259	1638.21851	400.20944	216.79227							
3613	30.100	1022.36426	406.38373	181.47948	1638.09082	404.57208	211.95619							
3614	30.108	1022.79236	410.09714	177.62352	1637.95801	408.73505	207.50140							
3615	30.117	1023.19586	413.38025	174.06377	1637.89124	412.61804	203.43530							
3616	30.125	1023.44354	416.47537	171.17361	1638.01257	416.20648	199.92252							
3617	30.133	1023.66473	419.05435	168.58664	1638.16992	419.55270	196.97342							
3618	30.142	1023.82996	421.44214	166.34538	1639.02722	422.19473	194.35155							
3619	30.150	1023.90399	423.36465	164.70230	1639.07434	424.92044	192.10298							
3620	30.158	1023.98016	424.84589	163.39087	1639.20325	427.16553	190.33907							
3621	30.167	1024.00696	426.02521	162.37143	1639.30029	428.95380	189.05995							
3622	30.175	1023.97968	426.65854	161.82574	1639.45923	430.30826	188.13202							
3623	30.183	1023.82452	426.85904	161.67329	1639.59741	431.34113	187.55875							
3624	30.192	1023.66443	426.66025	161.90733	1639.87170	431.79712	187.43250							
3625	30.200	1023.46381	425.97913	162.49033	1640.06201	431.84656	187.78627							
3626	30.208	1023.25226	424.92609	163.61154	1640.45044	431.50021	188.55948							
3627	30.217	1022.96570	423.52374	164.92860	1640.63953	430.70667	189.52927							
3628	30.225	1022.74286	421.80490	166.60251	1641.00525	429.38177	190.95003							
3629	30.233	1022.42249	419.47046	168.78893	1641.42200	427.67578	192.79626							
3630	30.242	1022.21552	416.99695	171.27853	1641.19495	425.19131	194.93135							
3631	30.250	1022.07288	414.09125	174.12155	1641.80811	422.86127	197.38239							
3632	30.258	1021.66821	410.86423	177.29370	1641.93286	419.94580	200.16257							
3633	30.267	1021.43207	407.30096	180.67239	1642.46753	416.71622	203.22891							
3634	30.275	1021.43262	403.47424	184.57335	1642.99060	413.14328	206.80923							
3635	30.283	1021.16528	399.33072	188.56367	1643.15332	409.03445	210.67680							
3636	30.292	1021.30188	395.17703	192.84871	1643.70520	404.83270	214.79027							
3637	30.300	1021.16516	390.34213	197.50111	1644.10010	400.24542	219.18391							
3638	30.308	1021.06982	385.34024	202.63394	1644.72473	395.39325	223.96863							
3639	30.317	1021.17303	380.46262	208.04485	1645.26746	390.44153	229.02789							
3640	30.325	1021.03998	375.20496	213.71136	1645.78748	385.19885	234.49841							
3641	30.333	1022.20996	369.96744	219.81084	1646.32629	379.70099	240.46718							
3642	30.342	1022.32336	364.69461	226.18929	1646.89868	374.18604	246.53505							
3643	30.350	1022.18982	359.11639	233.04883	1647.49304	368.58826	253.21158							
3644	30.358	1022.82306	353.98755	240.01430	1648.00940	362.89365	259.98477							
3645	30.367	1022.96576	348.61145	247.50960	1648.60974	357.00812	267.36279							
3646	30.375	1023.31848	343.30518	255.21825	1649.01587	351.13177	274.99442							
3647	30.383	1023.58722	337.85324	263.36490	1649.47534	345.44516	283.01270							
3648	30.392	1023.79883	332.47821	271.67807	1649.86487	339.69302	291.46045							
3649	30.400	1024.25293	327.29080	280.32983	1650.10339	334.03394	300.19931							
3650	30.408	1024.59766	322.16599	289.26959	1650.19067	328.59167	309.25269							
3651	30.417	1024.98669	317.27203	298.61487	1649.87061	322.99728	318.34720							
3652	30.425	1025.23059	312.65543	308.08807	1649.71313	318.07327	327.69962							
3653	30.433	1025.58313	308.24902	317.83459	1649.34863	313.64719	337.54581							
3654	30.442	1026.25598	304.22314	327.16357	1649.00623	309.59885	347.73267							
3655	30.450	1026.45215	300.31915	339.10461	1648.09863	305.13037	358.34985							
3656	30.458	1026.86597	296.55936	348.92206	1647.36414	301.16898	369.13553							
3657	30.467	1027.13574	293.51379	359.34317	1646.59814	297.56363	379.96506							
3658	30.475	1027.61133	290.63089	369.49832	1645.85974	294.35004	391.04297							
3659	30.483	1028.02283	288.21167	379.70764	1645.06799	291.54822	402.10193							
3660	30.492	1028.22815	285.89612	390.01797	1644.22046	289.06821	413.20450							
3661	30.500	1028.79089	283.81570	399.96155	1643.18750	287.11932	424.45157							
3662	30.508	1029.25500	282.02664	410.12402	1642.15759	285.61511	435.58966							
3663	30.517	1029.78198	280.50061	419.87524	1640.92896	284.59024	446.68390							
3664	30.525	1029.96680	279.28589	429.57172	1639.54077	284.08704	457.58170							
3665	30.533	1030.31348	278.33374	438.84085	1638.17969	283.69720	468.70746							
3666	30.542	1030.67358	277.86118	448.32486	1636.93054	284.20331	479.26810							
3667	30.550	1031.04419	277.94516	456.98349	1635.70215	284.76981	489.58453							
3668	30.558	1031.17798	278.05771	465.73883	1634.36841	285.63330	499.41400							
3669	30.567	1031.40405	278.74762	473.66211	1633.28210	286.70682	509.00089							
